<?xml version="1.0" encoding="utf-8"?>
<!-- Generator: Adobe Illustrator 25.4.1, SVG Export Plug-In . SVG Version: 6.00 Build 0)  -->
<svg version="1.1" id="Ebene_1" xmlns="http://www.w3.org/2000/svg" xmlns:xlink="http://www.w3.org/1999/xlink" x="0px" y="0px"
	 viewBox="0 0 120 102.02" style="enable-background:new 0 0 120 102.02;" xml:space="preserve">
<desc>Created with Sketch.</desc>
<g id="Group" transform="translate(124.000000, 124.000000)">
	<path id="Combined-Shape" style="fill-rule:evenodd;clip-rule:evenodd;fill:#002E7A;" d="M-10.45-24.32
		c-2.31,1.46-5.12,2.31-8.12,2.31c-8.04,0-14.57-6.09-14.57-13.61s6.51-13.61,14.57-13.61c2.66,0,5.14,0.66,7.29,1.82v-4.14
		c0-2.29,1.48-4.33,3.64-5.04c1.46-0.47,3.02,0.32,3.51,1.78C-4.04-54.52-4-54.22-4-53.92v14.53v14.61c0,0.3-0.04,0.58-0.13,0.88
		c-0.47,1.46-2.06,2.25-3.51,1.78C-8.84-22.52-9.81-23.32-10.45-24.32z M-18.57-28.8c4.03,0,7.29-3.04,7.29-6.79
		s-3.26-6.79-7.29-6.79s-7.29,3.04-7.29,6.79S-22.6-28.8-18.57-28.8z M-109.86-41.9l5.29-5.81c1.8-1.61,4.16-1.95,5.64-0.94
		c0.26,0.17,0.75,0.69,0.92,0.94c0.79,1.18,0.79,2.44,0,3.32l-7.24,8.01c-0.36,0.41-0.36,1.03,0,1.44l7.39,8.12
		c0.54,0.64,0.54,1.93,0,3.02c-0.19,0.39-0.96,1.14-1.29,1.31c-1.84,0.99-4.16,0.21-5.66-1.31l-5.06-5.7
		c-0.39-0.45-1.07-0.49-1.52-0.09c-0.02,0.02-0.06,0.06-0.09,0.09l-4.99,5.53c-1.69,1.74-3.77,2.42-5.79,1.52
		c-0.32-0.15-0.77-0.51-1.01-0.79c-0.92-1.05-0.96-3-0.26-3.66l7.44-8.16c0.39-0.41,0.36-1.05,0-1.46l-7.33-7.84
		c-0.77-0.86-0.77-2.21,0-3.32c0.19-0.3,0.73-0.86,1.01-1.01c1.67-0.96,4.11-0.51,5.64,1.11l5.34,5.7c0.41,0.43,1.09,0.45,1.52,0.04
		C-109.9-41.85-109.88-41.87-109.86-41.9z M-73.73-44.21c0-2.27,1.5-4.26,3.69-4.89c0.26-0.06,0.54-0.11,0.79-0.11
		c1.61,0,2.89,1.29,2.89,2.89v10.5c0,7.52-6.47,13.8-14.46,13.8s-14.46-6.3-14.46-13.82v-10.59c0-0.26,0.04-0.54,0.11-0.79
		c0.43-1.48,1.99-2.34,3.49-1.91c2.12,0.62,3.6,2.57,3.6,4.8v8.46c0,3.73,3.21,6.94,7.18,6.94s7.18-3.21,7.18-6.94V-44.21z
		 M-56.85-27.04c0,2.27-1.5,4.26-3.69,4.89c-0.26,0.06-0.54,0.11-0.79,0.11c-1.61,0-2.89-1.29-2.89-2.89v-10.61
		c0-7.52,6.47-13.67,14.46-13.67s14.46,6.15,14.46,13.67v10.69c0,0.26-0.04,0.54-0.11,0.79c-0.43,1.48-1.99,2.34-3.49,1.91
		c-2.12-0.62-3.6-2.57-3.6-4.8v-8.59c0-3.73-3.21-6.81-7.18-6.81s-7.18,3.09-7.18,6.81L-56.85-27.04L-56.85-27.04z"/>
	<g id="Group-5-Copy-2" transform="translate(138.000000, 0.000000)">
		
			<linearGradient id="Shape_00000002344594370992993930000013417302543068599710_" gradientUnits="userSpaceOnUse" x1="-460.5619" y1="-412.7489" x2="-460.4255" y2="-412.5694" gradientTransform="matrix(153.5302 0 0 200.7128 70510.3984 82735.6172)">
			<stop  offset="0" style="stop-color:#5CD2FF;stop-opacity:0"/>
			<stop  offset="1" style="stop-color:#5CD2FF"/>
		</linearGradient>
		
			<path id="Shape" style="fill-rule:evenodd;clip-rule:evenodd;fill:url(#Shape_00000002344594370992993930000013417302543068599710_);" d="
			M-186.83-88.7l5.19-5.21l-0.96-0.96l6.58,6.56c4.24,4.22,4.22,11.1-0.06,15.36c-4.26,4.26-11.16,4.29-15.41,0.06l-0.3-0.3
			c2.81,2.81,7.39,2.79,10.22-0.04c2.83-2.83,2.85-7.39,0.04-10.2L-186.83-88.7z M-192.06-93.9l-12.81-12.77
			c-1.18-1.18-1.18-3.06,0-4.24l0.94-0.94c1.18-1.18,3.09-1.18,4.26,0l12.81,12.75L-192.06-93.9z"/>
		<g id="Group-4">
			<g id="Group-8" transform="translate(3.000000, 27.000000)">
				<g id="Mask">
					
						<linearGradient id="path-3_00000059289383870261298680000010336347560917835698_" gradientUnits="userSpaceOnUse" x1="-464.9818" y1="-412.3741" x2="-465.0409" y2="-412.5193" gradientTransform="matrix(277.9851 0 0 253.2005 129057.2578 104302.3828)">
						<stop  offset="0" style="stop-color:#00ADEF"/>
						<stop  offset="1" style="stop-color:#0065BD"/>
					</linearGradient>
					
						<path id="path-3_00000142150904883075844220000001616826724841128578_" style="fill-rule:evenodd;clip-rule:evenodd;fill:url(#path-3_00000059289383870261298680000010336347560917835698_);" d="
						M-194.48-99.88c4.24,4.22,11.14,4.2,15.41-0.06c3.6-3.6,4.18-9.06,1.74-13.22c3.58,5.61,2.89,13.16-2.06,18.09
						c-5.72,5.7-14.94,5.72-20.62,0.09l-5.29-5.31l5.19-5.21L-194.48-99.88z M-231.49-126.48c-4.24-4.22-4.22-11.1,0.06-15.36
						c4.29-4.26,11.16-4.29,15.41-0.06l0.3,0.3c-2.81-2.81-7.39-2.79-10.22,0.04c-2.83,2.83-2.85,7.39-0.04,10.2l20.74,20.66
						l-5.23,5.19L-231.49-126.48z"/>
				</g>
				<g id="Path-3" style="opacity:0.8137;enable-background:new    ;">
					<polygon style="fill-rule:evenodd;clip-rule:evenodd;fill:#00439E;" points="-205.32,-110.7 -210.49,-105.48 -205.5,-100.14 
						-200.27,-105.41 					"/>
				</g>
			</g>
			
				<linearGradient id="Path_00000085940564158207981020000005981740554986544520_" gradientUnits="userSpaceOnUse" x1="-459.0161" y1="-412.3665" x2="-458.9458" y2="-412.5705" gradientTransform="matrix(275.9807 0 0 251.1162 126472.4141 103470.9062)">
				<stop  offset="0" style="stop-color:#00ADEF"/>
				<stop  offset="1" style="stop-color:#0065BD"/>
			</linearGradient>
			
				<path id="Path" style="fill-rule:evenodd;clip-rule:evenodd;fill:url(#Path_00000085940564158207981020000005981740554986544520_);" d="
				M-181.6-104.36c2.81-2.81,2.81-7.37-0.04-10.2c-2.85-2.83-7.41-2.85-10.22-0.04l0.3-0.3c4.24-4.22,11.14-4.2,15.41,0.06
				c4.26,4.26,4.31,11.14,0.06,15.36l-31.05,31.03c-5.68,5.66-14.89,5.61-20.62-0.09c-4.95-4.93-5.64-12.47-2.06-18.09
				c-2.46,4.16-1.89,9.62,1.74,13.22c4.26,4.26,11.16,4.29,15.41,0.06L-181.6-104.36z"/>
			
				<path id="Combined-Shape_00000017492966573383998090000000822191611272255621_" style="opacity:0.976;fill-rule:evenodd;clip-rule:evenodd;fill:#05AEEE;enable-background:new    ;" d="
				M-202.28-105.46c-0.77,0-1.56-0.28-2.16-0.88l-8.59-8.57c-4.24-4.22-11.14-4.2-15.41,0.06c-3.6,3.6-4.18,9.06-1.74,13.22
				c-3.58-5.61-2.89-13.16,2.06-18.09c5.72-5.7,14.94-5.72,20.62-0.09l5.23,5.21l5.21-5.19c5.68-5.66,14.89-5.61,20.62,0.09
				c4.95,4.93,5.64,12.47,2.06,18.09c2.46-4.16,1.89-9.62-1.74-13.22c-4.26-4.26-11.16-4.29-15.41-0.06l-8.59,8.57
				C-200.74-105.73-201.51-105.43-202.28-105.46z"/>
		</g>
		
			<linearGradient id="Path_00000147210582759866259310000011642133828813571007_" gradientUnits="userSpaceOnUse" x1="-459.8012" y1="-412.7213" x2="-459.9232" y2="-412.5468" gradientTransform="matrix(155.5373 0 0 202.7128 71310.3906 83555.3047)">
			<stop  offset="0" style="stop-color:#5CD2FF;stop-opacity:0"/>
			<stop  offset="1" style="stop-color:#5CD2FF"/>
		</linearGradient>
		
			<path id="Path_00000061432387616138008430000013117795241424931458_" style="fill-rule:evenodd;clip-rule:evenodd;fill:url(#Path_00000147210582759866259310000011642133828813571007_);" d="
			M-217.73-88.74l-4.93,4.89c-2.81,2.81-2.81,7.37,0.04,10.2c2.85,2.83,7.41,2.85,10.22,0.04l-0.3,0.3
			c-4.24,4.22-11.14,4.2-15.41-0.06c-4.26-4.26-4.31-11.14-0.06-15.36l24.09-24c1.18-1.18,3.09-1.18,4.26,0l0.94,0.94
			c1.18,1.18,1.18,3.06,0,4.24l-13.67,13.63l-5.21-5.16l-5.19,5.16L-217.73-88.74z"/>
	</g>
</g>
</svg>
